<svg xmlns="http://www.w3.org/2000/svg" id="Camada_1" width="28.3" height="28.3" viewBox="0 0 28.3 28.3"><style>.st0{fill:#5921aa}.st1{fill:#fff}</style><circle cx="14.2" cy="14.2" r="14.2" class="st0"/><path d="M663 1001.8c6 0 12.5-1.8 13.9-4.7.2-.2.4-.5.4-.9v-18.9c.1.1.3.2.5.2 1.7.3 3.5.4 5.3.4 1.9 0 3.8-.2 5.5-.5v18.8c0 .4.1.7.4.9 1.1 2.2 5.1 3.6 8.9 4.2 1.7.3 3.5.4 5.3.4 2.1 0 4.1-.2 6.1-.6 4.2-.8 7-2.3 7.9-4.1.2-.2.4-.5.4-.9V961c0-.2-.1-.4-.2-.6-1-3.3-7.8-5.4-14.1-5.4s-13.3 2.2-14.3 5.4c-.1.2-.2.4-.2.7v13.8c-3.3.6-7 .7-10.4.1-.3-.1-.6 0-.9.2V961c0-.2-.1-.4-.2-.6-1-3.3-7.8-5.4-14.1-5.4s-13.3 2.2-14.3 5.4c-.1.2-.2.4-.2.7v35.1c0 .3.1.7.4.9 1.3 2.9 7.8 4.7 13.9 4.7zm40.2-44.3c7.2 0 11.8 2.6 11.8 3.7v34.5c0 .5-1.8 2.1-6.2 2.9-3.3.6-7 .7-10.4.1-5-.8-7.1-2.5-7.1-3.1v-34.5c-.1-.9 4.7-3.6 11.9-3.6zm-40.2 0c7.2 0 11.8 2.6 11.8 3.7v34.5c0 1-4.6 3.5-11.8 3.5-7.2 0-12-2.5-12-3.5v-34.5c0-1 4.8-3.7 12-3.7z" class="st1"/><path d="M663 967.4c1.1 0 10.6-.1 10.6-3.9 0-.7-.6-1.3-1.3-1.3-.6 0-1.2.5-1.2 1.1-.5.5-3.3 1.5-8.1 1.5s-7.6-1-8.1-1.5c-.1-.6-.6-1.1-1.2-1.1-.7 0-1.3.6-1.3 1.3 0 3.8 9.6 3.9 10.6 3.9z" class="st1"/><ellipse cx="663.1" cy="960.9" class="st1" rx="4" ry="1.4"/><path d="M672.5 938.4c-.7 0-1.3.6-1.3 1.3 0 3.8 9.5 3.9 10.6 3.9 1.1 0 10.6-.1 10.6-3.9 0-.7-.6-1.3-1.3-1.3-.6 0-1.2.5-1.2 1.1-.5.5-3.3 1.5-8.1 1.5s-7.6-1-8.1-1.5c0-.6-.5-1.1-1.2-1.1z" class="st1"/><path d="M694.9 954.8c.7 0 1.3-.6 1.3-1.3v-16.3c0-.2-.1-.4-.2-.6-1-3.3-7.8-5.4-14.1-5.4s-13.3 2.2-14.3 5.4c-.1.2-.2.4-.2.7v16.3c0 .7.6 1.3 1.3 1.3.7 0 1.3-.6 1.3-1.3v-16.1c0-1.1 4.8-3.7 12-3.7s11.8 2.6 11.8 3.7v16.1c-.1.6.4 1.2 1.1 1.2z" class="st1"/><path d="M681.9 935.6c2.2 0 4 .6 4 1.4 0 .8-1.8 1.4-4 1.4s-4-.6-4-1.4c.1-.8 1.9-1.4 4-1.4zm21.3 31.8c1.1 0 10.6-.1 10.6-3.9 0-.7-.6-1.3-1.3-1.3-.6 0-1.2.5-1.2 1.1-.5.5-3.3 1.5-8.1 1.5s-7.6-1-8.1-1.5c-.1-.6-.6-1.1-1.2-1.1-.7 0-1.3.6-1.3 1.3 0 3.8 9.5 3.9 10.6 3.9zm.1-8c2.2 0 4 .6 4 1.4 0 .8-1.8 1.4-4 1.4s-4-.6-4-1.4c0-.7 1.8-1.4 4-1.4zM9.8 21.8c1.3 0 2.7-.4 3-1 0 0 .1-.1.1-.2v-4.1h.1c.4.1.8.1 1.1.1.4 0 .8 0 1.2-.1v4.1c0 .1 0 .1.1.2.2.5 1.1.8 1.9.9.4.1.8.1 1.1.1.5 0 .9 0 1.3-.1.9-.2 1.5-.5 1.7-.9 0 0 .1-.1.1-.2v-7.7c-.2-.7-1.7-1.2-3.1-1.2-1.4 0-2.9.5-3.1 1.2V16c-.7.1-1.5.1-2.3 0h-.2v-3.1c-.2-.7-1.7-1.2-3.1-1.2-1.4 0-2.9.5-3.1 1.2v7.7c0 .1 0 .1.1.2.4.7 1.8 1 3.1 1zm8.8-9.6c1.6 0 2.6.6 2.6.8v7.4c0 .1-.4.4-1.3.6-.7.1-1.5.2-2.3 0-1.2 0-1.6-.3-1.6-.5v-7.4c0-.3 1-.9 2.6-.9zm-8.8 0c1.6 0 2.6.6 2.6.8v7.4c0 .2-1 .8-2.6.8s-2.6-.5-2.6-.8V13c0-.2 1.1-.8 2.6-.8z" class="st1"/><path d="M9.8 14.4c.2 0 2.3 0 2.3-.8 0-.2-.1-.3-.3-.3-.1 0-.3.1-.3.2-.1.1-.7.3-1.8.3-1 0-1.6-.2-1.8-.3 0-.1-.1-.2-.3-.2-.2 0-.3.1-.3.3.2.8 2.3.8 2.5.8z" class="st1"/><ellipse cx="9.9" cy="13" class="st1" rx=".9" ry=".3"/><path d="M11.9 8.1c-.2 0-.3.1-.3.3 0 .8 2.1.8 2.3.8.2 0 2.3 0 2.3-.8 0-.2-.1-.3-.3-.3-.1 0-.3.1-.3.2-.1.1-.7.3-1.8.3-1 0-1.6-.2-1.8-.3.1-.1 0-.2-.1-.2z" class="st1"/><path d="M16.8 11.6c.2 0 .3-.1.3-.3V7.7c-.2-.7-1.7-1.2-3.1-1.2-1.4 0-2.9.5-3.1 1.2v3.6c0 .2.1.3.3.3s.3-.1.3-.3V7.9c0-.2 1-.8 2.6-.8s2.6.6 2.6.8v3.4c-.2.2-.1.3.1.3z" class="st1"/><path d="M13.9 7.5c.5 0 .9.1.9.3 0 .2-.4.3-.9.3S13 8 13 7.8c.1-.2.5-.3.9-.3zm4.7 6.9c.2 0 2.3 0 2.3-.8 0-.2-.1-.3-.3-.3-.1 0-.3.1-.3.2-.1.1-.7.3-1.8.3s-1.6-.2-1.8-.3c0-.1-.1-.2-.3-.2-.2 0-.3.1-.3.3.2.8 2.2.8 2.5.8zm0-1.8c.5 0 .9.1.9.3 0 .2-.4.3-.9.3s-.9-.1-.9-.3c0-.1.4-.3.9-.3z" class="st1"/></svg>