<svg xmlns="http://www.w3.org/2000/svg" id="Camada_1" width="28.3" height="28.3" viewBox="0 0 28.3 28.3"><style>.st0{fill:#5921aa}.st1{fill:#fff}</style><circle cx="14.2" cy="14.2" r="14.2" class="st0"/><path d="M13.7 17.8c-.2.7-.2 1.1-.8 1.1-.1 0-.3.1-.3.3 0 .1.1.3.2.3 0 0 .9.4 1.9.4.7 0 1.3-.2 1.8-.5.6-.4 1-1 1.2-1.9l-2-2c-1.6.3-1.9 1.5-2 2.3zm10.4-8.7c0-.1-.1-.1-.3-.1-.2 0-.6 0-3.5 2.4-1.3 1.1-2.8 2.5-4 3.7l1.9 1.9c1.2-1.3 2.7-2.9 3.8-4.3.7-.9 1.3-1.6 1.6-2.1.6-.8.8-1.2.5-1.5z" class="st1"/><path d="M17 20.1c-.6.4-1.4.7-2.3.7-1.2 0-2.1-.4-2.3-.4-.5-.2-.8-.7-.7-1.2.1-.5.5-.9 1-.9 0-.1.1-.4.1-.5.1-.5.2-1.1.6-1.7.4-.6 1.1-1 2-1.2.5-.5 1.1-1 1.7-1.6-.3-.1-.6-.3-.7-.6-.2-.5 0-1.1.5-1.4.5-.2 1.1 0 1.4.5 0 .1.1.2.1.3.5-.4 1-.9 1.5-1.3-.5-1-1.3-1.9-2.2-2.6-1.3-1-2.9-1.5-4.5-1.5-1.1 0-2.5.4-3.5 1-1.3.8-2 1.8-2 2.9 0 1.3.7 1.9 1.3 2.3.5.4.9.6.9 1.3 0 .6-.4.9-.9 1.3-.6.4-1.3 1-1.3 2.3 0 1.1.7 2.1 2 2.9 1.1.6 2.4 1 3.5 1 2 0 3.9-.8 5.3-2.2 1.1-1.1 1.8-2.4 2.1-3.8-.7.8-1.4 1.6-2.1 2.2-.3 1-.8 1.7-1.5 2.2zM13.3 9.8c.1-.6.7-.9 1.3-.8.6.1.9.7.8 1.2-.1.6-.7.9-1.2.8-.7-.1-1-.6-.9-1.2zm-3.4 1.9c-.4-.4-.3-1.1.2-1.5.4-.4 1.1-.3 1.5.2.4.4.3 1.1-.2 1.5-.5.3-1.1.2-1.5-.2zm.6 6.8c-.4-.4-.5-1-.2-1.5.4-.4 1-.5 1.5-.2.4.4.5 1 .2 1.5-.4.5-1.1.6-1.5.2z" class="st1"/></svg>